<svg width="60" height="60" viewBox="0 0 60 60" fill="none" xmlns="http://www.w3.org/2000/svg">
<circle cx="30" cy="30" r="30" fill="#172935"/>
<path d="M19.3677 20.7657C13.5441 24.2923 13.5441 35.7077 19.3677 39.2343L20.6439 40L23.8921 39.884C30.7135 39.6056 33.3817 39.3968 34.3097 38.9791C34.8898 38.7239 35.7947 38.5847 36.8852 38.5847C39.8782 38.5847 41.6647 37.703 43.0568 35.522C43.9617 34.1067 44.6578 31.7169 44.6578 30C44.6578 28.2831 43.9617 25.8933 43.0568 24.478C41.6647 22.297 39.8782 21.4153 36.8852 21.4153C35.7947 21.4153 34.8898 21.2761 34.3097 21.0209C33.3817 20.6032 30.7135 20.3944 23.8921 20.116L20.6439 20L19.3677 20.7657ZM24.3097 21.7169C25.5162 22.4362 26.7923 24.1995 27.4188 26.0557C27.9988 27.8422 27.9988 32.1578 27.4188 33.9443C25.7715 38.7935 21.6879 40.464 18.7181 37.471C15.145 33.9211 15.145 26.0789 18.7181 22.529C20.3886 20.8353 22.3376 20.5568 24.3097 21.7169ZM28.022 21.8097C31.8039 24.478 32.6856 32.0882 29.7158 36.4269C28.7413 37.8422 27.3724 38.8167 26.0963 38.9791L25.0986 39.1183L26.0499 38.1671C27.9292 36.2877 28.9733 33.3875 28.9733 30C28.9733 26.6125 27.9292 23.7123 26.0499 21.8329L25.0986 20.8817L26.0963 21.0209C26.6531 21.0905 27.5116 21.4385 28.022 21.8097ZM34.3794 22.2506C35.9107 23.0394 37.1868 24.5476 37.9756 26.5197C38.6949 28.3295 38.6949 31.6705 37.9756 33.4803C36.6995 36.7285 34.4954 38.3527 31.1775 38.5383L29.2981 38.6543L30.2262 37.4246C31.3863 35.8933 32.0824 34.1067 32.4304 31.8097C32.8944 28.5383 32.0592 24.9884 30.2262 22.5754L29.2981 21.3457L31.1775 21.4617C32.6392 21.5545 33.3353 21.7169 34.3794 22.2506ZM40.435 23.2019C42.3144 24.2923 43.5673 26.9838 43.5673 30C43.5673 34.2459 41.4559 37.1462 38.1148 37.5406C36.6067 37.7262 36.4907 37.587 37.3028 36.5661C40.2958 32.9002 40.2958 27.0998 37.3028 23.4339C37.0012 23.0626 36.7691 22.6682 36.7691 22.529C36.7691 22.1114 39.3678 22.5754 40.435 23.2019Z" fill="white"/>
<path d="M20.876 22.2273C19.6695 22.6449 18.3702 24.1298 17.6973 25.7772C17.2565 26.8909 17.1869 27.5405 17.1869 29.9999C17.1869 33.457 17.6509 34.9883 19.2286 36.6124C21.456 38.9558 24.217 38.3062 25.8412 35.0811C26.7692 33.225 27.1173 31.4384 26.9548 29.1879C26.6532 24.3155 23.8922 21.16 20.876 22.2273ZM23.4746 23.4802C24.4258 24.0834 25.5859 26.4268 25.8876 28.4454C26.2124 30.4872 25.8644 32.6681 24.9131 34.5939C24.101 36.2644 23.1961 36.9605 21.8736 36.9605C20.7135 36.9605 19.391 35.6612 18.6486 33.805C17.8829 31.8329 17.8829 28.167 18.6486 26.1948C19.391 24.3387 20.7135 23.0394 21.8736 23.0394C22.3377 23.0394 23.0569 23.2482 23.4746 23.4802Z" fill="white"/>
<path d="M21.6183 24.13C21.3167 24.4084 21.4559 24.6636 22.0359 24.942C22.9176 25.3365 23.4977 26.4734 23.8457 28.5151C24.0777 29.884 24.2633 30.3713 24.5417 30.4177C24.8666 30.4873 24.9362 30.3017 24.9362 29.2576C24.9362 27.471 24.3561 25.7541 23.4513 24.7796C22.732 24.0372 21.9895 23.7587 21.6183 24.13Z" fill="white"/>
</svg>
