<svg width="60" height="60" viewBox="0 0 60 60" fill="none" xmlns="http://www.w3.org/2000/svg">
<circle cx="30" cy="30" r="30" fill="#172935"/>
<path d="M14.0788 20.2683C13.8837 20.6098 14.4203 20.9756 15.152 20.9756C15.8349 20.9756 15.8593 21.5854 15.2008 21.9512C14.9325 22.0976 14.713 22.3902 14.713 22.6341C14.713 22.8537 14.5423 23.3659 14.3471 23.7561C13.5179 25.3415 14.1764 26.2927 16.2983 26.5122C17.4691 26.6098 18.2496 26.9268 20.2008 28C21.5423 28.7317 22.713 29.4634 22.8349 29.6098C23.3715 30.3902 23.274 30.9512 22.3715 32.0976C21.1764 33.6829 20.6398 34.9024 20.2984 37.0244C20.0544 38.561 20.0544 38.8293 20.4203 39.3902C20.6886 39.8049 21.0301 40 21.5423 40C22.4447 40 23.0057 39.2195 23.0057 37.9268C23.0057 36.3415 23.6642 34.8293 25.1032 33.0732C26.274 31.6585 26.5423 31.4634 27.274 31.4634C28.0301 31.4634 28.1276 31.5366 28.1276 32.0732C28.1276 32.5122 28.0057 32.6829 27.6886 32.6829C26.7374 32.6829 26.4203 33.439 26.4203 35.6341C26.4203 38.1707 26.7374 38.7805 28.1032 38.7805C28.6154 38.7805 29.1032 38.7073 29.1764 38.6098C29.4935 38.3171 28.8105 37.8049 28.0788 37.8049H27.3715L27.4447 35.6585L27.5179 33.5366H29.591H31.6642L31.7374 35.6585C31.8105 37.6829 31.7862 37.7805 31.2496 37.8537C30.9325 37.9024 30.6642 38.122 30.6154 38.3415C30.4935 39.0244 31.9081 38.9268 32.3715 38.2439C32.9569 37.4146 32.9081 33.6341 32.3227 33.0976C32.0788 32.8537 31.6886 32.6829 31.4691 32.6829C31.2008 32.6829 31.0544 32.4878 31.0544 32.0732C31.0544 31.5366 31.152 31.4634 31.9081 31.4634C32.6398 31.4634 32.9081 31.6585 34.0788 33.0732C35.5179 34.8293 36.1764 36.3415 36.1764 37.9268C36.1764 39.2195 36.7374 40 37.6398 40C38.152 40 38.4935 39.8049 38.7618 39.3902C39.1276 38.8293 39.1276 38.561 38.8837 37.0244C38.591 35.1951 38.2252 34.439 37.8105 34.8537C37.6642 35 37.6886 35.5366 37.8593 36.3415C38.274 38.2927 38.2252 39.0244 37.6398 39.0244C37.2252 39.0244 37.152 38.8537 37.152 38.0976C37.152 36.5122 36.4447 34.7073 35.2252 33.0732C34.152 31.6829 34.0788 31.4878 34.5179 31.3902C34.8593 31.2927 35.2008 31.561 35.8837 32.439C36.3715 33.0976 36.9081 33.6341 37.0788 33.6341C37.713 33.6829 37.6154 33.1707 36.7618 32.0732C35.9081 30.9512 35.8105 30.3902 36.3471 29.6098C36.7374 29.0732 41.5666 26.5854 42.2496 26.5854C43.5666 26.5854 44.4935 26.2683 44.8837 25.7073C45.2252 25.1707 45.2252 25 44.8105 23.6341C44.5423 22.8293 44.152 22.0488 43.9081 21.9268C43.2984 21.5854 43.3959 20.9756 44.0545 20.9756C44.7618 20.9756 45.2984 20.6098 45.1032 20.2683C45.0057 20.0976 44.152 20 42.9813 20C41.2496 20 41.0301 20.0488 41.1032 20.4146C41.152 20.6829 41.4447 20.878 41.8593 20.9268C42.591 21.0244 42.8105 21.7805 42.152 22.0244C41.9569 22.122 41.713 22.5366 41.591 22.9756C41.3959 23.7073 41.274 23.8049 38.8349 24.6098L36.2496 25.439L35.7618 24.9512C35.4691 24.6585 34.9081 24.3659 34.4935 24.2683C33.9569 24.1463 33.6398 23.878 33.3227 23.2439C32.2008 20.8537 26.9813 20.8537 25.8593 23.2439C25.5423 23.878 25.2252 24.1463 24.6886 24.2683C24.274 24.3659 23.713 24.6585 23.4447 24.9268C23.0057 25.3659 22.8349 25.3902 22.0301 25.1463C20.8349 24.8049 20.8105 24.8049 20.8105 25.3171C20.8105 25.6341 21.1032 25.8537 21.7862 26.0732C22.713 26.3415 22.7618 26.4146 22.7618 27.3415V28.3171L20.2252 26.9756C18.2496 25.9024 17.4691 25.6098 16.6154 25.6098C15.591 25.6098 14.9569 25.2927 14.9569 24.8049C14.9569 24.6098 16.6154 24.6585 18.8593 24.9268C19.7862 25.0488 19.6154 24.3659 18.6154 24.0244C17.9813 23.8049 17.7374 23.561 17.591 22.9512C17.4691 22.5366 17.2252 22.122 17.0301 22.0244C16.3715 21.7805 16.591 21.0244 17.3227 20.9268C17.7374 20.878 18.0301 20.6829 18.0788 20.4146C18.152 20.0488 17.9325 20 16.2008 20C15.0301 20 14.1764 20.0976 14.0788 20.2683ZM32.1032 23.2195L32.8837 24.0244L30.8105 24.1463C29.1764 24.2439 28.7374 24.3415 28.7374 24.6341C28.7374 24.9268 29.2496 25.0244 31.6642 25.0732C35.3471 25.1463 35.4447 25.2195 35.4447 27.7561C35.4447 30.5854 35.6398 30.4878 29.6398 30.4878C23.5666 30.4878 23.7374 30.561 23.7374 27.8049C23.7374 25.5122 24.0057 25.1951 25.9081 25.0732C27.3227 25 27.8349 24.5366 26.8837 24.1707L26.3227 23.9756L27.0788 23.1951C27.7862 22.4878 27.9569 22.439 29.591 22.439C31.2496 22.439 31.3715 22.4878 32.1032 23.2195ZM16.6642 23.1707C16.6642 23.5366 16.4935 23.6585 16.0544 23.6585C15.4691 23.6585 15.2252 23.2195 15.6154 22.8537C15.9813 22.4878 16.6642 22.6829 16.6642 23.1707ZM43.6886 23.2195C43.7618 23.5366 43.6154 23.6585 43.152 23.6585C42.6642 23.6585 42.5179 23.5366 42.5179 23.1463C42.5179 22.7805 42.6398 22.6585 43.0545 22.7317C43.3715 22.7805 43.6398 23 43.6886 23.2195ZM44.2252 24.8293C44.2252 25.2927 43.5666 25.6098 42.5666 25.6098C41.7374 25.6098 40.9325 25.9024 38.9569 26.9756L36.4203 28.3415V27.3659V26.3902L38.9325 25.5366C41.2984 24.7073 44.2252 24.3171 44.2252 24.8293ZM24.2252 32.6829C22.9569 34.1951 22.2496 35.8049 22.1032 37.5854C21.9813 38.8293 21.8837 39.0244 21.4691 39.0244C21.0301 39.0244 21.0057 38.9268 21.152 37.5122C21.4203 34.878 23.6154 31.0976 24.713 31.3902C25.152 31.5122 25.1276 31.6098 24.2252 32.6829ZM30.0788 32.0976C30.0788 32.9024 29.274 32.8293 29.152 32C29.0788 31.5854 29.2008 31.4634 29.5666 31.4634C29.9569 31.4634 30.0788 31.6098 30.0788 32.0976Z" fill="white"/>
<path d="M28.4935 34.9757C27.7618 36.0733 28.8106 37.3659 30.1033 36.9513C31.4448 36.5123 31.0301 34.3903 29.5911 34.3903C29.1033 34.3903 28.7374 34.5855 28.4935 34.9757ZM30.0301 35.6586C29.9569 35.8294 29.7618 35.9757 29.5911 35.9757C29.4204 35.9757 29.2252 35.8294 29.1765 35.6586C29.1033 35.4879 29.274 35.3659 29.5911 35.3659C29.9082 35.3659 30.0789 35.4879 30.0301 35.6586Z" fill="white"/>
</svg>
