<svg width="60" height="60" viewBox="0 0 60 60" fill="none" xmlns="http://www.w3.org/2000/svg">
<circle cx="30" cy="30" r="30" fill="#172935"/>
<path d="M22.7549 20.2327C21.1583 20.7336 20 22.4711 20 24.3964C20 25.3982 20.2035 25.7739 20.767 25.7739C21.4088 25.7739 21.6279 25.4138 21.7375 24.2086C21.894 22.5024 22.7236 21.7041 24.3359 21.7041C24.7741 21.7041 25.2437 21.5945 25.4472 21.4537C25.8855 21.1406 25.9168 20.3736 25.4942 20.1388C25.0559 19.9197 23.6628 19.9666 22.7549 20.2327Z" fill="white"/>
<path d="M34.5259 20.1388C34.1189 20.3893 34.1659 21.1563 34.5885 21.4537C34.792 21.5945 35.2616 21.7041 35.6998 21.7041C37.3121 21.7041 38.1417 22.5024 38.2982 24.2086C38.3608 24.7877 38.5017 25.3825 38.6113 25.5234C38.9243 25.8991 39.6757 25.8521 39.8948 25.4295C40.1453 24.9599 39.9887 23.1598 39.6287 22.4085C39.253 21.6258 38.3921 20.7649 37.6095 20.3893C36.8895 20.0449 34.9328 19.8884 34.5259 20.1388Z" fill="white"/>
<path d="M28.6717 26.9322C27.9986 27.2296 27.0908 28.2157 26.8716 28.8575C26.402 30.2975 26.9812 31.9568 28.2491 32.8177C28.7343 33.1464 29.0004 33.209 30.0179 33.209C31.0353 33.209 31.3014 33.1464 31.7866 32.8177C32.1153 32.5985 32.5693 32.1446 32.8041 31.8159C33.1797 31.268 33.2267 31.0489 33.2267 30.0001C33.2267 28.9514 33.1797 28.7323 32.8041 28.1844C32.1153 27.1983 31.3953 26.807 30.19 26.76C29.5483 26.7287 28.9691 26.7913 28.6717 26.9322ZM30.7222 28.5288C31.2075 28.7479 31.7397 29.5306 31.7397 30.0001C31.7397 30.1097 31.6301 30.4228 31.4892 30.7045C31.1918 31.3463 30.3466 31.7846 29.7048 31.6437C29.1256 31.5185 28.4995 30.8924 28.3743 30.3132C28.2334 29.6871 28.6717 28.8262 29.2822 28.5288C29.9083 28.2157 30.0805 28.2157 30.7222 28.5288Z" fill="white"/>
<path d="M20.1409 34.5708C19.8904 35.0404 20.047 36.8405 20.407 37.5918C20.7826 38.3744 21.6436 39.2354 22.4262 39.611C23.3184 40.0336 25.1811 40.1432 25.5255 39.7832C25.8698 39.4545 25.8698 38.8597 25.5411 38.5936C25.4002 38.484 24.8054 38.3431 24.2263 38.2805C22.5201 38.124 21.7218 37.2944 21.7218 35.6821C21.7218 35.2439 21.6122 34.7743 21.4714 34.5708C21.1583 34.1012 20.3913 34.1012 20.1409 34.5708Z" fill="white"/>
<path d="M38.5643 34.5708C38.4235 34.7742 38.3139 35.2438 38.3139 35.6821C38.3139 37.2944 37.5156 38.124 35.8094 38.2805C35.2303 38.3431 34.6355 38.484 34.4946 38.5936C34.1189 38.9066 34.1659 39.6579 34.5885 39.8771C35.0581 40.1275 36.8582 39.971 37.6095 39.611C38.3922 39.2353 39.2531 38.3744 39.6287 37.5918C39.9887 36.8404 40.1453 35.0403 39.8948 34.5708C39.6444 34.1012 38.8774 34.1012 38.5643 34.5708Z" fill="white"/>
</svg>
