<svg width="60" height="60" viewBox="0 0 60 60" fill="none" xmlns="http://www.w3.org/2000/svg">
<circle cx="30" cy="30" r="30" fill="#172935"/>
<path d="M32.1238 20.1787C32.0769 20.2882 32.0456 20.914 32.0769 21.5554C32.1238 22.5879 32.1551 22.713 32.4367 22.713C32.7183 22.713 32.7496 22.6035 32.7496 21.3833C32.7496 20.2413 32.7183 20.0535 32.468 20.0066C32.3272 19.9753 32.1551 20.0535 32.1238 20.1787Z" fill="white" stroke="white" stroke-width="0.4"/>
<path d="M28.8074 20.851C28.7448 21.0074 28.9951 21.3828 29.5583 21.946C30.4344 22.8221 30.7316 22.9629 30.9037 22.5405C30.9663 22.3528 30.7316 22.0242 30.1215 21.4454C29.2142 20.5537 28.9639 20.4442 28.8074 20.851Z" fill="white" stroke="white" stroke-width="0.4"/>
<path d="M34.7523 21.4454C34.1422 22.0242 33.9075 22.3528 33.9701 22.5405C34.1422 22.9629 34.4394 22.8221 35.3155 21.946C35.8787 21.3828 36.129 21.0074 36.0664 20.851C35.91 20.4442 35.6597 20.5537 34.7523 21.4454Z" fill="white" stroke="white" stroke-width="0.4"/>
<path d="M29.2612 24.309C29.1048 24.5594 28.7606 25.1225 28.5103 25.5606L28.0566 26.3897H26.9303H25.7882V25.9047C25.7882 25.2477 25.053 24.5124 24.3803 24.5124C23.7076 24.5124 22.9723 25.2477 22.9723 25.9047C22.9723 26.374 22.9567 26.3897 22.2684 26.3897C21.3767 26.3897 20.704 26.7339 20.3129 27.3753C20.0156 27.8446 20 28.1887 20 33.1948C20 38.2008 20.0156 38.545 20.3129 39.0143C20.923 40.0312 20.6727 39.9999 30.0121 39.9999C39.3515 39.9999 39.1012 40.0312 39.7113 39.0143C40.0086 38.545 40.0242 38.2008 40.0242 33.2261C40.0242 27.3909 40.0086 27.2814 39.0386 26.7026C38.7101 26.4992 38.2564 26.3897 37.6776 26.3897H36.8172L36.1132 25.1695L35.4093 23.9649L32.4838 23.9179L29.5741 23.8867L29.2612 24.309ZM35.4405 25.5293L35.9411 26.3897H32.4369H28.9327L29.4333 25.5293L29.9339 24.6689H32.4369H34.9556L35.4405 25.5293ZM24.8183 25.4823C24.9278 25.5918 25.0061 25.8265 25.0061 26.0299C25.0061 26.3428 24.9278 26.3897 24.3803 26.3897C23.8328 26.3897 23.7545 26.3428 23.7545 26.0299C23.7545 25.6075 24.0205 25.2946 24.3803 25.2946C24.5211 25.2946 24.7088 25.3728 24.8183 25.4823ZM38.8509 27.563L39.242 27.9384V33.1948V38.4511L38.8509 38.8266L38.4755 39.2177H30.0121H21.5487L21.1733 38.8266L20.7822 38.4511V33.1948V27.9384L21.1733 27.563L21.5487 27.1719H30.0121H38.4755L38.8509 27.563Z" fill="white" stroke="white" stroke-width="0.4"/>
<path d="M31.0291 28.4696C30.5754 28.6104 30.4033 28.7512 30.4033 28.9702C30.4033 29.3143 30.4033 29.3143 32.0616 29.111C34.3925 28.845 36.5826 30.8005 36.5826 33.1158C36.5826 35.3998 34.6741 37.3397 32.437 37.3397C30.0591 37.3397 28.088 35.1652 28.3539 32.8186C28.5573 31.176 28.5573 31.1603 28.2131 31.1603C27.7908 31.1603 27.4622 32.3023 27.5561 33.5225C27.6813 35.3216 28.6981 36.8234 30.2938 37.6056C31.0447 37.9811 31.3889 38.0436 32.437 38.0436C33.4851 38.0436 33.8293 37.9811 34.5802 37.6056C35.5971 37.105 36.4731 36.1977 36.9425 35.1652C37.4118 34.1483 37.4118 32.2397 36.9425 31.2229C36.1603 29.5021 34.5646 28.4226 32.703 28.3288C32.1241 28.2975 31.3732 28.3601 31.0291 28.4696Z" fill="white" stroke="white" stroke-width="0.4"/>
<path d="M23.1287 29.7529C22.8001 30.1596 23.1287 30.3004 24.3802 30.3004C25.6317 30.3004 25.9602 30.1596 25.6317 29.7529C25.4909 29.5808 25.1154 29.5182 24.3802 29.5182C23.6449 29.5182 23.2695 29.5808 23.1287 29.7529Z" fill="white" stroke="white" stroke-width="0.4"/>
<path d="M28.9172 29.9875C28.9172 30.1909 29.0267 30.3004 29.2301 30.3004C29.4334 30.3004 29.5429 30.1909 29.5429 29.9875C29.5429 29.7842 29.4334 29.6747 29.2301 29.6747C29.0267 29.6747 28.9172 29.7842 28.9172 29.9875Z" fill="white" stroke="white" stroke-width="0.4"/>
<path d="M31.1855 30.2854C29.5429 31.052 28.8077 32.898 29.5273 34.4467C30.7162 37.0123 34.1579 37.0123 35.3468 34.4467C36.5358 31.8968 33.7355 29.0965 31.1855 30.2854ZM33.6103 31.1146C34.4708 31.709 34.7836 32.2566 34.7836 33.1952C34.7836 34.6031 33.845 35.5418 32.437 35.5418C31.5297 35.5418 31.0135 35.2602 30.419 34.4624C29.9653 33.8679 29.9653 32.5225 30.419 31.9124C30.9509 31.1928 31.7018 30.7704 32.437 30.7704C32.8594 30.7704 33.2818 30.8955 33.6103 31.1146Z" fill="white" stroke="white" stroke-width="0.4"/>
<path d="M32.124 31.8651C31.9832 32.0842 32.1709 32.3345 32.5933 32.4909C32.7967 32.5691 33.047 32.8351 33.1721 33.0697C33.4381 33.6485 33.8292 33.6329 33.8917 33.0541C33.97 32.4752 33.266 31.7087 32.6559 31.7087C32.4212 31.7087 32.1709 31.7713 32.124 31.8651Z" fill="white" stroke="white" stroke-width="0.4"/>
</svg>
