<svg width="60" height="60" viewBox="0 0 60 60" fill="none" xmlns="http://www.w3.org/2000/svg">
<circle cx="30" cy="30" r="30" fill="#172935"/>
<path d="M27.7738 18.126C27.6529 18.2419 27.6478 18.2721 27.6478 18.9323V19.6125H25.35C23.6921 19.6125 22.9916 19.6277 22.8404 19.673C22.5633 19.7536 22.145 20.1719 22.0644 20.4491C21.9787 20.7464 21.9787 27.3477 22.0644 27.645C22.145 27.9222 22.5633 28.3404 22.8404 28.4211C22.9916 28.4664 23.6921 28.4815 25.35 28.4815H27.6478V29.1618C27.6478 29.822 27.6529 29.8522 27.7738 29.9681C27.8847 30.084 27.9351 30.0941 28.3785 30.0941H28.8572V32.1098V34.1255H28.5851C28.3936 34.1255 28.2777 34.1557 28.1971 34.2212C28.0762 34.3169 28.0762 34.322 28.051 35.743L28.0258 37.1641L25.0778 39.3259C23.4552 40.5152 22.0997 41.523 22.0694 41.5684C21.9334 41.7498 21.9939 41.9312 22.2811 42.2386C22.5986 42.5661 23.0017 42.803 23.4401 42.9189C24.075 43.0801 23.9289 43.1557 26.0756 41.5835C27.1338 40.8074 28.0157 40.1725 28.0258 40.1725C28.0409 40.1725 28.051 40.6512 28.051 41.2358C28.051 41.906 28.0711 42.3343 28.1064 42.3998C28.1719 42.5208 28.7615 42.803 29.1596 42.8987C29.5678 42.9995 30.6613 42.9894 31.0695 42.8735C31.4827 42.7626 31.9614 42.5208 32.0319 42.3948C32.0622 42.3343 32.0823 41.8707 32.0823 41.2358C32.0823 40.6512 32.0924 40.1725 32.1075 40.1725C32.1227 40.1725 32.9995 40.8074 34.0577 41.5835C36.2044 43.1557 36.0583 43.0801 36.6932 42.9189C37.1316 42.803 37.5348 42.5661 37.8522 42.2386C38.1395 41.9312 38.1999 41.7498 38.0689 41.5684C38.0336 41.523 36.6781 40.5101 35.0555 39.3259L32.1075 37.1641L32.0823 35.743C32.0571 34.322 32.0571 34.3169 31.9362 34.2212C31.8556 34.1557 31.7397 34.1255 31.5482 34.1255H31.2761V32.1098V30.0941H31.7548C32.1982 30.0941 32.2486 30.084 32.3595 29.9681C32.4804 29.8522 32.4855 29.822 32.4855 29.1618V28.4815H34.7834C36.4413 28.4815 37.1417 28.4664 37.2929 28.4211C37.57 28.3404 37.9883 27.9222 38.0689 27.645C38.1546 27.3528 38.1546 20.7464 38.0689 20.4591C38.0387 20.3483 37.9127 20.1467 37.7918 20.0157C37.4289 19.6075 37.4541 19.6125 34.7934 19.6125H32.4855V18.9323C32.4855 18.2721 32.4804 18.2419 32.3595 18.126L32.2386 18H30.0667H27.8948L27.7738 18.126ZM31.6792 19.2094V19.6125H30.0667H28.4541V19.2094V18.8063H30.0667H31.6792V19.2094ZM37.1971 20.5448L37.3231 20.6657V24.047V27.4284L37.1971 27.5493C37.0963 27.6551 37.0258 27.6753 36.794 27.6753H36.5168V24.5762V21.472L36.3909 21.3511C36.3153 21.2704 36.2094 21.2251 36.1137 21.2251C36.018 21.2251 35.9121 21.2704 35.8365 21.3511L35.7106 21.472V24.5762V27.6753H29.3864H23.0571L22.9362 27.5493L22.8102 27.4284V24.047V20.6657L22.9362 20.5448L23.0571 20.4188H30.0667H37.0762L37.1971 20.5448ZM31.6792 28.8847V29.2878H30.0667H28.4541V28.8847V28.4815H30.0667H31.6792V28.8847ZM30.4698 32.1098V34.1255H30.0667H29.6635V32.1098V30.0941H30.0667H30.4698V32.1098ZM31.2761 35.9648C31.2761 36.8365 31.266 36.9978 31.2005 36.9978C31.0594 36.9978 30.5655 37.2094 30.3237 37.3757L30.0717 37.5471L29.8197 37.3808C29.5678 37.2094 29.0739 36.9978 28.9328 36.9978C28.8673 36.9978 28.8572 36.8365 28.8572 35.9648V34.9317H30.0667H31.2761V35.9648ZM29.1747 37.9401C29.3108 38.0056 29.4116 38.0812 29.4015 38.1064C29.3914 38.1367 28.1518 39.0639 26.64 40.1725C24.0045 42.1076 23.8886 42.1831 23.7173 42.1529C23.4955 42.1176 23.0521 41.8959 23.0722 41.8354C23.0823 41.8102 24.322 40.883 25.8337 39.7744C28.4692 37.8393 28.5851 37.7587 28.7565 37.789C28.8522 37.8041 29.0437 37.8746 29.1747 37.9401ZM34.2996 39.7694C35.8114 40.878 37.051 41.8052 37.0611 41.8354C37.0812 41.8959 36.6428 42.1176 36.4161 42.1529C36.2447 42.1831 36.1238 42.1025 33.4933 40.1725C31.9816 39.0639 30.7419 38.1316 30.7318 38.1064C30.7066 38.0308 31.266 37.7688 31.4776 37.7587C31.5179 37.7587 32.7878 38.6607 34.2996 39.7694ZM30.6764 39.0991L31.2761 39.5426L31.266 40.752L31.2509 41.9614L30.9737 42.0572C30.757 42.1327 30.5605 42.1529 30.0667 42.1529C29.5728 42.1529 29.3763 42.1327 29.1596 42.0572L28.8824 41.9614L28.8673 40.752L28.8572 39.5426L29.4468 39.1042C29.7744 38.8623 30.0465 38.6658 30.0566 38.6658C30.0667 38.6607 30.3438 38.8573 30.6764 39.0991Z" fill="white"/>
<path d="M23.3394 23.367C23.2184 23.4829 23.2134 23.5232 23.2134 24.0473C23.2134 24.5714 23.2184 24.6117 23.3394 24.7276C23.415 24.8082 23.5208 24.8536 23.6165 24.8536C23.7123 24.8536 23.8181 24.8082 23.8937 24.7276C24.0146 24.6117 24.0197 24.5714 24.0197 24.0473C24.0197 23.5232 24.0146 23.4829 23.8937 23.367C23.8181 23.2864 23.7123 23.241 23.6165 23.241C23.5208 23.241 23.415 23.2864 23.3394 23.367Z" fill="white"/>
</svg>
