<svg width="60" height="60" viewBox="0 0 60 60" fill="none" xmlns="http://www.w3.org/2000/svg">
<circle cx="30" cy="30" r="30" fill="#172935"/>
<path d="M29.4115 20.0093C29.3372 20.0171 29.083 20.0445 28.8445 20.0679C27.1593 20.2361 25.4037 20.936 23.9491 22.023C23.4526 22.3944 22.432 23.4149 22.045 23.9272C21.6618 24.4316 21.3959 24.8656 21.3959 24.979C21.3959 25.1197 21.4819 25.2644 21.5953 25.327C21.8534 25.4599 21.9902 25.3817 22.2835 24.9399C23.4799 23.1452 25.2434 21.8196 27.2609 21.1901C27.7106 21.0533 28.3597 20.9086 28.8641 20.8421C29.4115 20.7678 30.7331 20.7796 31.2883 20.8617C32.6764 21.0767 33.9823 21.5694 35.0693 22.2967L35.3899 22.5117L34.9129 22.9888L34.4359 23.4658L34.1856 23.3055C33.3332 22.7659 32.1993 22.3475 31.1749 22.195C29.0283 21.8783 26.8699 22.4413 25.1495 23.7747C24.6842 24.1344 24.0234 24.8069 23.6793 25.2722C23.3548 25.7141 23.3196 25.8001 23.39 25.9721C23.4565 26.1324 23.5738 26.2028 23.7615 26.2028C23.9452 26.2028 23.9843 26.1676 24.3558 25.675C25.2903 24.4316 26.7175 23.4971 28.2697 23.1178C28.9344 22.9536 29.3137 22.9066 30.0175 22.9106C31.3313 22.9145 32.473 23.2155 33.5678 23.849L33.8728 24.0288L33.3059 24.5958L32.7389 25.1627L32.3557 24.9829C31.91 24.7717 31.476 24.631 30.9911 24.5371C30.5219 24.4433 29.5249 24.4433 29.0361 24.5332C27.9999 24.7248 26.9442 25.2527 26.2365 25.9291C25.9941 26.1637 25.9706 26.1989 25.9706 26.3436C25.9706 26.6095 26.2326 26.7971 26.4711 26.7072C26.5259 26.6877 26.6588 26.5899 26.7683 26.4882C27.2375 26.066 27.8905 25.6828 28.4848 25.4873C29.0126 25.3074 29.4154 25.2488 30.0371 25.2527C30.7839 25.2527 31.2766 25.3582 32.0077 25.675L32.1602 25.7414L30.9364 26.9653C29.8298 28.0718 29.693 28.1969 29.5327 28.236C28.9462 28.3846 28.4457 28.8499 28.258 29.4286L28.1954 29.6241L26.8973 30.0698C26.1818 30.3162 25.4662 30.5664 25.302 30.629L25.0009 30.7424L22.5415 34.2888C21.1887 36.2399 20.0587 37.8782 20.0313 37.929C20 37.9838 19.9922 38.0737 20.0078 38.1636C20.0274 38.2809 20.1681 38.4373 20.8602 39.1333C21.7048 39.974 21.7908 40.0404 22.0098 39.9857C22.0801 39.9701 22.4633 39.6182 23.0811 39.0004L24.0469 38.0424L24.4574 38.32C25.7048 39.1646 27.2375 39.7316 28.825 39.9349C29.4193 40.0092 30.7487 39.9974 31.3469 39.9114C33.1729 39.6494 34.9129 38.8948 36.3127 37.757C37.2276 37.0141 38.3264 35.7277 38.3264 35.4031C38.3264 35.2233 38.1465 35.0395 37.9745 35.0395C37.779 35.0395 37.6617 35.1373 37.3684 35.5439C37.0243 36.017 36.1211 36.9281 35.6089 37.3112C33.8689 38.625 31.8474 39.2819 29.7438 39.2076C29.0166 39.1841 28.5356 39.1255 27.9374 38.9886C26.8543 38.7345 25.8103 38.2887 24.9267 37.6944L24.606 37.4794L25.0831 37.0023L25.5601 36.5292L25.8064 36.6856C26.346 37.0297 27.1124 37.3738 27.7497 37.5615C30.2091 38.277 32.7702 37.8 34.8269 36.236C35.3508 35.8411 36.2619 34.887 36.4417 34.5429C36.6138 34.2223 36.3088 33.8469 35.9803 33.9838C35.9178 34.0112 35.7614 34.1676 35.6206 34.3474C34.6118 35.6534 33.126 36.584 31.5033 36.932C30.4633 37.1548 29.2042 37.1314 28.215 36.8733C27.5894 36.7091 26.9403 36.4471 26.4281 36.146L26.1192 35.9662L26.6901 35.3992L27.257 34.8284L27.6402 35.0082C29.5561 35.9154 31.8005 35.6495 33.4779 34.3161C33.8455 34.0229 34.0253 33.8117 34.0253 33.671C34.0253 33.4559 33.9002 33.2956 33.7125 33.2761C33.5444 33.2604 33.4584 33.2956 33.2902 33.4481C32.6177 34.0581 31.9022 34.4374 31.038 34.6407C30.6744 34.7228 30.5063 34.7423 30.0175 34.7423C29.259 34.7423 28.6842 34.6289 28.0625 34.3552L27.8318 34.2536L29.0635 33.0219C30.0957 31.9897 30.3147 31.7903 30.4281 31.7707C30.952 31.6769 31.5815 31.1099 31.7262 30.6094C31.7497 30.5195 31.7888 30.4257 31.8122 30.3983C31.8357 30.3709 32.516 30.1246 33.3215 29.847C34.127 29.5654 34.8347 29.3152 34.8973 29.2878C34.9715 29.2526 35.6988 28.236 37.4583 25.6984C38.8112 23.7512 39.9373 22.1129 39.9647 22.0621C40.0742 21.8587 40.0116 21.7688 39.1162 20.8773C38.6157 20.3768 38.2286 20.021 38.17 20.0054C38.1152 19.9937 38.0175 20.0015 37.9549 20.0249C37.8884 20.0484 37.4153 20.4902 36.8953 21.0064L35.9569 21.9448L35.5072 21.6476C33.9588 20.6193 32.1563 20.0562 30.2521 20.0093C29.865 20.0015 29.4858 20.0015 29.4115 20.0093ZM38.6079 21.4599L39.1045 21.9604L36.7975 25.2839L34.4945 28.6075L33.1729 29.065C32.4496 29.3191 31.8357 29.5263 31.8083 29.5263C31.781 29.5263 31.7575 29.5029 31.7575 29.4755C31.7575 29.4442 31.7028 29.3152 31.6402 29.1823C31.5033 28.9086 31.1514 28.541 30.9207 28.4237C30.8308 28.3807 30.7526 28.3377 30.7409 28.326C30.7252 28.3103 38.0566 20.9634 38.0918 20.9634C38.1035 20.9634 38.3342 21.1862 38.6079 21.4599ZM30.4476 29.0532C30.6666 29.151 30.9129 29.4325 30.995 29.6827C31.1241 30.0777 31.0185 30.4648 30.6901 30.7658C30.5141 30.93 30.2169 31.0513 29.998 31.0513C29.779 31.0513 29.4819 30.93 29.3059 30.7658C29.0439 30.5234 28.9618 30.3475 28.9618 29.9955C28.9618 29.6476 29.0439 29.4677 29.302 29.2253C29.4584 29.0845 29.5718 29.0259 29.822 28.9633C29.9511 28.932 30.2795 28.9789 30.4476 29.0532ZM28.2736 30.6172C28.3753 30.9691 28.7702 31.4227 29.1143 31.583C29.1925 31.6221 29.2551 31.6612 29.2551 31.673C29.2551 31.6847 27.6011 33.3504 25.5796 35.3719L21.9042 39.0473L21.3998 38.539L20.8915 38.0307L23.1984 34.7071L25.5053 31.3836L26.8035 30.93C27.519 30.6759 28.129 30.4726 28.1642 30.4687C28.2033 30.4648 28.2424 30.5195 28.2736 30.6172Z" fill="white"/>
<path d="M20.8525 26.0425C20.6335 26.2458 20.7156 26.5899 21.001 26.6759C21.3921 26.7932 21.6658 26.3123 21.3608 26.0386C21.1926 25.89 21.0128 25.89 20.8525 26.0425Z" fill="white"/>
<path d="M38.5688 33.6907C38.2051 33.851 38.3263 34.4141 38.7252 34.4141C39.1592 34.4141 39.2569 33.8236 38.8464 33.6672C38.7291 33.6242 38.7252 33.6242 38.5688 33.6907Z" fill="white"/>
</svg>
