<svg width="166" height="18" viewBox="0 0 166 18" fill="none" xmlns="http://www.w3.org/2000/svg">
<path d="M144.884 0.624458L144.743 0.5H144.554H136.554V1.5H144.366L149.047 5.6151L147.901 6.62241L147.731 6.76856L135.983 16.6168L134.929 17.5H136.304H144.304H144.491L144.632 17.3774L149.79 12.8954L154.977 17.3783L155.118 17.5H155.304H163.304H164.682L163.625 16.6164L154.434 8.93393L163.377 1.38201L164.421 0.5H163.054H155.054H154.866L154.724 0.62448L149.805 4.94935L144.884 0.624458ZM155.49 16.5L150.553 12.2327L151.874 11.0841L152.117 10.8904L152.117 10.8906L152.127 10.882L153.658 9.58892L161.926 16.5H155.49Z" fill="#172935" stroke="#172935"/>
<path d="M5.6 14.075V10.325H22.7V14.075H5.6ZM0 16.5L10.725 0.5H17.675L28.5 16.5H21.625L12.35 2.175H16.075L6.875 16.5H0Z" fill="#172935"/>
<path d="M30.8789 0.5H37.1289V16.5H30.8789V0.5Z" fill="#172935"/>
<path d="M41.002 16.5V0.5H60.327C61.8436 0.5 63.202 0.675 64.402 1.025C65.6186 1.35833 66.577 1.925 67.277 2.725C67.9936 3.525 68.352 4.61667 68.352 6C68.352 6.91667 68.1853 7.675 67.852 8.275C67.5186 8.875 67.0603 9.34167 66.477 9.675C65.8936 10.0083 65.227 10.25 64.477 10.4C63.727 10.55 62.9436 10.6417 62.127 10.675L60.302 10.325C62.2853 10.3417 63.8103 10.425 64.877 10.575C65.9603 10.725 66.7103 11 67.127 11.4C67.5603 11.7833 67.777 12.3417 67.777 13.075V16.5H61.527V13.825C61.527 13.325 61.427 12.95 61.227 12.7C61.0436 12.4333 60.627 12.25 59.977 12.15C59.3436 12.05 58.3603 12 57.027 12H47.252V16.5H41.002ZM47.252 7.825H60.327C60.827 7.825 61.2436 7.74167 61.577 7.575C61.927 7.40833 62.102 7.09167 62.102 6.625C62.102 6.19167 61.927 5.9 61.577 5.75C61.2436 5.58333 60.827 5.5 60.327 5.5H47.252V7.825Z" fill="#172935"/>
<path d="M89.8125 0.5C92.0625 0.5 93.9208 0.716666 95.3875 1.15C96.8542 1.58333 98.0042 2.175 98.8375 2.925C99.6708 3.675 100.254 4.53333 100.588 5.5C100.938 6.45 101.113 7.45 101.113 8.5C101.113 9.55 100.921 10.5583 100.538 11.525C100.154 12.475 99.5208 13.325 98.6375 14.075C97.7708 14.825 96.6125 15.4167 95.1625 15.85C93.7292 16.2833 91.9458 16.5 89.8125 16.5H71.8125V0.5H89.8125ZM78.0625 11.5H89.5625C90.4958 11.5 91.2875 11.4417 91.9375 11.325C92.5875 11.1917 93.1042 11 93.4875 10.75C93.8875 10.5 94.1708 10.1917 94.3375 9.825C94.5208 9.44167 94.6125 9 94.6125 8.5C94.6125 8 94.5208 7.56667 94.3375 7.2C94.1708 6.81667 93.8875 6.5 93.4875 6.25C93.1042 6 92.5875 5.81667 91.9375 5.7C91.2875 5.56667 90.4958 5.5 89.5625 5.5H78.0625V11.5Z" fill="#172935"/>
<path d="M119.231 17C115.598 17 112.673 16.6833 110.456 16.05C108.24 15.4 106.623 14.45 105.606 13.2C104.606 11.9333 104.106 10.3667 104.106 8.5C104.106 6.63333 104.606 5.075 105.606 3.825C106.623 2.55833 108.24 1.60833 110.456 0.974999C112.673 0.324999 115.598 0 119.231 0C122.865 0 125.79 0.324999 128.006 0.974999C130.223 1.60833 131.831 2.55833 132.831 3.825C133.848 5.075 134.356 6.63333 134.356 8.5C134.356 10.3667 133.848 11.9333 132.831 13.2C131.831 14.45 130.223 15.4 128.006 16.05C125.79 16.6833 122.865 17 119.231 17ZM119.231 12.25C120.948 12.25 122.431 12.15 123.681 11.95C124.931 11.7333 125.898 11.3583 126.581 10.825C127.265 10.275 127.606 9.5 127.606 8.5C127.606 7.5 127.265 6.73333 126.581 6.2C125.898 5.65 124.931 5.275 123.681 5.075C122.431 4.85833 120.948 4.75 119.231 4.75C117.515 4.75 116.006 4.85833 114.706 5.075C113.423 5.275 112.415 5.65 111.681 6.2C110.965 6.73333 110.606 7.5 110.606 8.5C110.606 9.5 110.965 10.275 111.681 10.825C112.415 11.3583 113.423 11.7333 114.706 11.95C116.006 12.15 117.515 12.25 119.231 12.25Z" fill="#172935"/>
</svg>
